<svg xmlns="http://www.w3.org/2000/svg" xmlns:xlink="http://www.w3.org/1999/xlink" viewBox="0,0,256,256" width="48px" height="48px" fill-rule="nonzero"><g fill="#fc5d35" fill-rule="nonzero" stroke="none" stroke-width="1" stroke-linecap="butt" stroke-linejoin="miter" stroke-miterlimit="10" stroke-dasharray="" stroke-dashoffset="0" font-family="none" font-weight="none" font-size="none" text-anchor="none" style="mix-blend-mode: normal"><g transform="scale(5.33333,5.33333)"><path d="M44,24c0,10.13 -7.52,18.5 -17.29,19.81v-14.81h2.49c1.48,0 2.74,-1.08 2.97,-2.54l0.53,-3.42h-5.99v-1.87c0,-2.18 0.71,-4.12 2.75,-4.12h1.29c1.1,0 2,-0.9 2,-2v-2.59c-0.58,-0.08 -1.8,-0.25 -4.11,-0.25c-4.81,0 -7.63,2.54 -7.63,8.34v2.49h-1.95c-1.66,0 -3,1.34 -3,3v2.96h4.95v14.78c-9.63,-1.45 -17.01,-9.75 -17.01,-19.78c0,-11.05 8.95,-20 20,-20c11.05,0 20,8.95 20,20z"></path></g></g></svg>