<svg xmlns="http://www.w3.org/2000/svg" xmlns:xlink="http://www.w3.org/1999/xlink" viewBox="0,0,256,256" width="48px" height="48px" fill-rule="nonzero"><g fill="#ffffff" fill-rule="nonzero" stroke="none" stroke-width="1" stroke-linecap="butt" stroke-linejoin="miter" stroke-miterlimit="10" stroke-dasharray="" stroke-dashoffset="0" font-family="none" font-weight="none" font-size="none" text-anchor="none" style="mix-blend-mode: normal"><g transform="scale(10.66667,10.66667)"><path d="M8,3c-2.7466,0 -5,2.2534 -5,5v8c0,2.7466 2.2534,5 5,5h8c2.7466,0 5,-2.2534 5,-5v-8c0,-2.7466 -2.2534,-5 -5,-5zM8,5.5h8c1.3954,0 2.5,1.1046 2.5,2.5v8c0,1.3954 -1.1046,2.5 -2.5,2.5h-8c-1.3954,0 -2.5,-1.1046 -2.5,-2.5v-8c0,-1.3954 1.1046,-2.5 2.5,-2.5zM16.75,6c-0.69036,0 -1.25,0.55964 -1.25,1.25c0,0.69036 0.55964,1.25 1.25,1.25c0.69036,0 1.25,-0.55964 1.25,-1.25c0,-0.69036 -0.55964,-1.25 -1.25,-1.25zM12,7c-1.5625,0 -2.892,0.63094 -3.74609,1.5918c-0.85409,0.96085 -1.25391,2.19293 -1.25391,3.4082c0,1.21528 0.39982,2.44735 1.25391,3.4082c0.85409,0.96085 2.18359,1.5918 3.74609,1.5918c1.5625,0 2.892,-0.63094 3.74609,-1.5918c0.85409,-0.96085 1.25391,-2.19293 1.25391,-3.4082c0,-1.21528 -0.39982,-2.44735 -1.25391,-3.4082c-0.85409,-0.96085 -2.18359,-1.5918 -3.74609,-1.5918zM12,9.5c0.9375,0 1.483,0.30656 1.87891,0.75195c0.39591,0.4454 0.62109,1.08832 0.62109,1.74805c0,0.65972 -0.22518,1.30265 -0.62109,1.74805c-0.39591,0.4454 -0.94141,0.75195 -1.87891,0.75195c-0.9375,0 -1.483,-0.30656 -1.87891,-0.75195c-0.39591,-0.4454 -0.62109,-1.08832 -0.62109,-1.74805c0,-0.65972 0.22518,-1.30265 0.62109,-1.74805c0.39591,-0.4454 0.94141,-0.75195 1.87891,-0.75195z"></path></g></g></svg>