<svg xmlns="http://www.w3.org/2000/svg" xmlns:xlink="http://www.w3.org/1999/xlink" viewBox="0,0,256,256" width="48px" height="48px" fill-rule="nonzero"><g fill="#ffffff" fill-rule="nonzero" stroke="none" stroke-width="1" stroke-linecap="butt" stroke-linejoin="miter" stroke-miterlimit="10" stroke-dasharray="" stroke-dashoffset="0" font-family="none" font-weight="none" font-size="none" text-anchor="none" style="mix-blend-mode: normal"><g transform="scale(5.33333,5.33333)"><path d="M42,11.5v25c0,3.03 -2.47,5.5 -5.5,5.5h-5.5v-14h3.62c0.51,0 0.94,-0.38 1,-0.88l0.37,-3c0.04,-0.28 -0.05,-0.57 -0.24,-0.78c-0.19,-0.22 -0.46,-0.34 -0.75,-0.34h-4v-3.5c0,-1.1 0.9,-2 2,-2h2c0.55,0 1,-0.45 1,-1v-3.38c0,-0.51 -0.4,-0.94 -0.91,-0.99c-0.06,-0.01 -1.47,-0.13 -3.26,-0.13c-4.4,0 -6.83,2.62 -6.83,7.37v3.63h-4c-0.55,0 -1,0.45 -1,1v3c0,0.55 0.45,1 1,1h4v14h-13.5c-3.03,0 -5.5,-2.47 -5.5,-5.5v-25c0,-3.03 2.47,-5.5 5.5,-5.5h25c3.03,0 5.5,2.47 5.5,5.5z"></path></g></g></svg>