<svg xmlns="http://www.w3.org/2000/svg" xmlns:xlink="http://www.w3.org/1999/xlink" viewBox="0,0,256,256" width="48px" height="48px" fill-rule="nonzero"><g fill="#fc5d35" fill-rule="nonzero" stroke="none" stroke-width="1" stroke-linecap="butt" stroke-linejoin="miter" stroke-miterlimit="10" stroke-dasharray="" stroke-dashoffset="0" font-family="none" font-weight="none" font-size="none" text-anchor="none" style="mix-blend-mode: normal"><g transform="scale(10.66667,10.66667)"><path d="M19.414,3h-14.828l-1.586,1.586v14.828l1.586,1.586h14.828l1.586,-1.586v-14.828zM9.237,16h-2.174v-6.038h2.174zM8.11,8.857c-0.665,0 -1.11,-0.445 -1.11,-1.038c0,-0.589 0.445,-1.033 1.186,-1.033c0.665,0 1.105,0.445 1.105,1.033c0,0.593 -0.44,1.038 -1.181,1.038zM17,16h-2.107v-3.302c0,-0.912 -0.562,-1.123 -0.773,-1.123c-0.211,0 -0.912,0.144 -0.912,1.123c0,0.144 0,3.302 0,3.302h-2.174v-6.038h2.174v0.845c0.283,-0.494 0.845,-0.845 1.896,-0.845c1.051,0 1.896,0.845 1.896,2.736z"></path></g></g></svg>